<?xml version="1.0" encoding="UTF-8" standalone="no"?>
<!-- Created with Inkscape (http://www.inkscape.org/) -->

<svg
   width="150mm"
   height="150mm"
   viewBox="0 0 150 150"
   version="1.1"
   id="svg1"
   inkscape:version="1.4 (e7c3feb100, 2024-10-09)"
   sodipodi:docname="favicon.svg"
   xmlns:inkscape="http://www.inkscape.org/namespaces/inkscape"
   xmlns:sodipodi="http://sodipodi.sourceforge.net/DTD/sodipodi-0.dtd"
   xmlns="http://www.w3.org/2000/svg"
   xmlns:svg="http://www.w3.org/2000/svg">
  <sodipodi:namedview
     id="namedview1"
     pagecolor="#ffffff"
     bordercolor="#000000"
     borderopacity="0.25"
     inkscape:showpageshadow="2"
     inkscape:pageopacity="0.0"
     inkscape:pagecheckerboard="0"
     inkscape:deskcolor="#d1d1d1"
     inkscape:document-units="mm"
     inkscape:zoom="0.7140452"
     inkscape:cx="315.80634"
     inkscape:cy="380.22803"
     inkscape:window-width="1912"
     inkscape:window-height="1052"
     inkscape:window-x="0"
     inkscape:window-y="0"
     inkscape:window-maximized="0"
     inkscape:current-layer="layer1" />
  <defs
     id="defs1" />
  <g
     inkscape:label="Layer 1"
     inkscape:groupmode="layer"
     id="layer1">
    <path
       id="use1-2-5-3"
       d="m 35.702454,145.15827 q 1.834896,1.7436 5.198892,1.7436 h 0.2037 q 2.854254,0 5.708571,-4.02079 2.854256,-4.02049 5.300803,-10.98984 2.446549,-6.96905 4.587238,-14.00551 2.140691,-7.03616 4.281445,-15.21136 0.30555,-1.40808 0.509864,-2.07616 7.339644,-28.480183 15.90247,-52.80536 8.562826,-24.32518 12.436504,-31.629474 0.611711,-1.207346 1.019417,-2.010246 0.408015,-0.8029 1.732926,-2.947961 1.325215,-2.1450616 2.752344,-3.7526559 1.427186,-1.6087966 3.465903,-3.2835024 2.038779,-1.674706 4.485329,-2.681327 2.44655,-1.00362517 5.1989,-0.93771547 5.70856,0 8.56283,2.34578717 2.85431,2.3457853 3.26202,5.360855 0,1.6747059 -1.22325,2.6813276 -1.22324,1.003625 -2.34457,1.273255 -1.12133,0.269631 -2.24267,0.209714 -2.14069,0 -3.87367,-1.006623 -1.73293,-1.003624 -1.73293,-2.747235 0,-3.2163939 5.40272,-3.8194673 l -0.30554,-0.269632 q -0.30556,-0.2097118 -0.81548,-0.4703543 -0.50987,-0.269632 -0.81554,-0.4014505 -1.52911,-0.671081 -3.364,-0.671081 -1.42712,0 -2.65037,0.8028995 -1.22331,0.8029011 -3.26203,3.7526604 -2.03878,2.9479612 -3.975644,7.7731472 -1.936808,4.824891 -4.791123,13.603465 -2.854257,8.778575 -5.708572,20.639629 Q 82.594574,72.055713 76.070528,92.025157 69.54642,111.9946 65.876629,120.9742 q -3.669792,8.9796 -5.606598,12.86617 -7.849324,15.61372 -19.368379,15.61372 -4.077559,0 -7.441493,-2.07617 -3.363998,-2.07615 -3.771765,-5.69609 0,-2.34579 1.936869,-3.2164 1.936808,-0.8718 3.873675,-0.8718 2.14069,0 3.873615,1.00662 1.732983,1.00363 1.732983,2.74723 0,3.21641 -5.402775,3.81947 z"
       style="fill:#3b8bc0;fill-opacity:1;stroke:#fcc737;stroke-width:0;stroke-dasharray:none;stroke-opacity:1" />
  </g>
</svg>
