<?xml version="1.0" encoding="UTF-8" standalone="no"?>
<!-- Created with Inkscape (http://www.inkscape.org/) -->

<svg
   width="90.190857mm"
   height="57.341961mm"
   viewBox="0 0 90.190857 57.341961"
   version="1.1"
   id="svg1"
   inkscape:export-filename="bitmap.png"
   inkscape:export-xdpi="96"
   inkscape:export-ydpi="96"
   inkscape:version="1.4 (e7c3feb100, 2024-10-09)"
   sodipodi:docname="drawing.svg"
   xmlns:inkscape="http://www.inkscape.org/namespaces/inkscape"
   xmlns:sodipodi="http://sodipodi.sourceforge.net/DTD/sodipodi-0.dtd"
   xmlns:xlink="http://www.w3.org/1999/xlink"
   xmlns="http://www.w3.org/2000/svg"
   xmlns:svg="http://www.w3.org/2000/svg">
  <sodipodi:namedview
     id="namedview1"
     pagecolor="#ffffff"
     bordercolor="#000000"
     borderopacity="0.25"
     inkscape:showpageshadow="2"
     inkscape:pageopacity="0.0"
     inkscape:pagecheckerboard="0"
     inkscape:deskcolor="#d1d1d1"
     inkscape:document-units="mm"
     inkscape:zoom="1.2204651"
     inkscape:cx="183.12691"
     inkscape:cy="346.1795"
     inkscape:window-width="1912"
     inkscape:window-height="1052"
     inkscape:window-x="0"
     inkscape:window-y="0"
     inkscape:window-maximized="0"
     inkscape:current-layer="g4"
     showguides="false">
    <inkscape:page
       x="-3.2394873e-14"
       y="0"
       width="90.190849"
       height="57.341961"
       id="page2"
       margin="0"
       bleed="0" />
  </sodipodi:namedview>
  <defs
     id="defs1">
    <linearGradient
       id="linearGradient6"
       inkscape:collect="always">
      <stop
         style="stop-color:#ffffff;stop-opacity:0;"
         offset="0.76761836"
         id="stop5" />
      <stop
         style="stop-color:#6495ed;stop-opacity:0.65782881;"
         offset="1"
         id="stop6" />
    </linearGradient>
    <linearGradient
       id="linearGradient3"
       inkscape:collect="always">
      <stop
         style="stop-color:#6495ed;stop-opacity:0;"
         offset="0"
         id="stop3" />
      <stop
         style="stop-color:#6495ed;stop-opacity:1;"
         offset="1"
         id="stop4" />
    </linearGradient>
    <linearGradient
       id="linearGradient1"
       inkscape:collect="always">
      <stop
         style="stop-color:#5186d5;stop-opacity:0;"
         offset="0"
         id="stop1" />
      <stop
         style="stop-color:#5186d5;stop-opacity:1;"
         offset="1"
         id="stop2" />
    </linearGradient>
    <linearGradient
       inkscape:collect="always"
       xlink:href="#linearGradient1"
       id="linearGradient2"
       x1="39.990257"
       y1="67.587906"
       x2="131.91304"
       y2="67.587906"
       gradientUnits="userSpaceOnUse"
       gradientTransform="matrix(-0.99951641,0,0,1.0126547,102.21024,49.012507)" />
    <linearGradient
       inkscape:collect="always"
       xlink:href="#linearGradient3"
       id="linearGradient4"
       x1="39.990257"
       y1="67.587906"
       x2="131.91304"
       y2="67.587906"
       gradientUnits="userSpaceOnUse"
       gradientTransform="matrix(-0.99951641,0,0,1.0126547,102.21024,49.012507)" />
    <linearGradient
       inkscape:collect="always"
       xlink:href="#linearGradient6"
       id="linearGradient2-0"
       x1="39.990257"
       y1="67.587906"
       x2="131.91304"
       y2="67.587906"
       gradientUnits="userSpaceOnUse"
       gradientTransform="matrix(0.99903306,0,0,1.0254697,-87.824772,47.916328)" />
  </defs>
  <g
     inkscape:label="Layer 1"
     inkscape:groupmode="layer"
     id="layer1"
     transform="translate(-16.635125,-52.266194)">
    <path
       style="font-weight:600;font-size:26.7681px;font-family:'Playfair Display';-inkscape-font-specification:'Playfair Display Semi-Bold';text-align:center;text-anchor:middle;opacity:0.831824;fill:#5186d5;fill-rule:evenodd;stroke-width:1.3"
       d="m 28.109822,89.90683 q 2.730346,0 4.79149,1.151028 2.061144,1.151028 3.185404,3.319245 1.151029,2.141448 1.151029,5.219779 0,2.998028 -1.177797,5.246548 -1.151028,2.24852 -3.23894,3.50662 -2.061144,1.2581 -4.737954,1.2581 -2.730346,0 -4.79149,-1.15103 -2.061144,-1.15102 -3.212172,-3.31924 -1.12426,-2.16822 -1.12426,-5.219781 0,-2.998027 1.177796,-5.246547 1.177797,-2.248521 3.23894,-3.506622 2.061144,-1.2581 4.737954,-1.2581 z m -0.107072,0.481826 q -1.579318,0 -2.757115,1.204564 -1.151028,1.204565 -1.793462,3.319245 -0.642435,2.11468 -0.642435,4.898562 0,2.837423 0.722739,4.952103 0.722739,2.08791 1.954071,3.23894 1.231333,1.12426 2.703579,1.12426 1.579317,0 2.730346,-1.20457 1.177796,-1.20456 1.820231,-3.31924 0.642434,-2.14145 0.642434,-4.898565 0,-2.864187 -0.722739,-4.952099 -0.722738,-2.087912 -1.954071,-3.212172 -1.204565,-1.151028 -2.703578,-1.151028 z m 17.800777,-0.42829 q 1.499013,0 2.302056,0.321217 0.803043,0.321217 1.391942,0.695971 0.321217,0.187376 0.508593,0.294449 0.214145,0.0803 0.401522,0.0803 0.267681,0 0.374753,-0.294449 0.133841,-0.294449 0.214145,-0.883347 h 0.615666 q -0.02677,0.508594 -0.0803,1.177796 -0.02677,0.669203 -0.05354,1.793463 0,1.097492 0,2.917723 h -0.615666 q -0.0803,-1.365173 -0.615667,-2.623274 -0.508594,-1.258101 -1.472245,-2.061144 -0.936884,-0.829811 -2.409129,-0.829811 -1.311637,0 -2.194985,0.776275 -0.856579,0.776275 -0.856579,2.087912 0,1.12426 0.56213,1.900535 0.56213,0.749507 1.579318,1.472246 1.043956,0.69597 2.462666,1.606086 1.311636,0.856579 2.355592,1.713166 1.043956,0.82981 1.632855,1.847 0.615666,1.01718 0.615666,2.48943 0,1.73992 -0.856579,2.89095 -0.85658,1.15103 -2.302057,1.71316 -1.445477,0.56213 -3.158636,0.56213 -1.579318,0 -2.516201,-0.32122 -0.910116,-0.32121 -1.579318,-0.6692 -0.588899,-0.37475 -0.910116,-0.37475 -0.267681,0 -0.401521,0.29445 -0.107073,0.29445 -0.187377,0.88335 h -0.615666 q 0.05354,-0.61567 0.05354,-1.44548 0.02677,-0.82981 0.02677,-2.14145 0.02677,-1.33841 0.02677,-3.37278 h 0.615666 q 0.107073,1.71316 0.588899,3.21217 0.508594,1.47225 1.525781,2.38236 1.043956,0.91012 2.757115,0.91012 0.936883,0 1.68639,-0.32122 0.776275,-0.34799 1.231333,-1.04396 0.455057,-0.72273 0.455057,-1.82023 0,-1.09749 -0.508593,-1.9273 -0.508594,-0.82981 -1.41871,-1.55255 -0.910115,-0.72274 -2.141448,-1.47225 -1.258101,-0.80304 -2.355593,-1.632853 -1.097492,-0.829811 -1.766694,-1.873767 -0.642435,-1.070724 -0.642435,-2.569738 0,-1.659622 0.803043,-2.703578 0.803043,-1.070724 2.087912,-1.579318 1.311637,-0.508594 2.783883,-0.508594 z m 15.445203,5.059171 q 0.990419,0 1.82023,0.240913 0.85658,0.214145 1.472246,0.615666 0.642434,0.401522 1.017188,1.017188 0.374753,0.588898 0.374753,1.311637 0,0.883347 -0.535362,1.418709 -0.535362,0.53536 -1.338405,0.53536 -0.829811,0 -1.365173,-0.481824 -0.508594,-0.481825 -0.508594,-1.284868 0,-0.776275 0.455058,-1.284869 0.455057,-0.508594 1.097492,-0.669203 -0.240913,-0.347985 -0.749507,-0.56213 -0.508594,-0.240913 -1.12426,-0.240913 -0.803043,0 -1.445478,0.42829 -0.642434,0.401521 -1.12426,1.231333 -0.455058,0.803043 -0.722739,2.007607 -0.240912,1.177797 -0.240912,2.730347 0,2.16822 0.508593,3.42632 0.535362,1.2581 1.365174,1.79346 0.829811,0.50859 1.766694,0.50859 0.56213,0 1.204565,-0.21414 0.642434,-0.21415 1.258101,-0.72274 0.642434,-0.50859 1.151028,-1.44548 l 0.508594,0.18738 q -0.294449,0.93688 -0.963652,1.87377 -0.642434,0.93688 -1.68639,1.55255 -1.043956,0.61566 -2.54297,0.61566 -1.713158,0 -3.105099,-0.77627 -1.391942,-0.80305 -2.221753,-2.40913 -0.803043,-1.60609 -0.803043,-3.98845 0,-2.35559 0.829811,-3.988446 0.829811,-1.659622 2.302057,-2.54297 1.499014,-0.883347 3.346013,-0.883347 z m 13.143134,0 q 1.846999,0 3.265708,0.749507 1.445478,0.722738 2.275289,2.328825 0.856579,1.606086 0.856579,4.229361 0,2.62327 -0.856579,4.22936 -0.829811,1.60608 -2.275289,2.32882 -1.418709,0.72274 -3.265708,0.72274 -1.846999,0 -3.292477,-0.72274 -1.445477,-0.72274 -2.275288,-2.32882 -0.829811,-1.60609 -0.829811,-4.22936 0,-2.623275 0.829811,-4.229361 0.829811,-1.606087 2.275288,-2.328825 1.445478,-0.749507 3.292477,-0.749507 z m 0,0.535362 q -1.258101,0 -2.061144,1.606086 -0.776275,1.579318 -0.776275,5.166245 0,3.58692 0.776275,5.16624 0.803043,1.57932 2.061144,1.57932 1.231332,0 2.034376,-1.57932 0.803043,-1.57932 0.803043,-5.16624 0,-3.586927 -0.803043,-5.166245 -0.803044,-1.606086 -2.034376,-1.606086 z m 15.070444,-7.254155 q 0.883347,0 1.525781,0.240913 0.669203,0.214144 1.151029,0.588898 0.401521,0.321217 0.642434,0.803043 0.267681,0.481826 0.267681,1.070724 0,0.722739 -0.508594,1.231332 -0.481826,0.508594 -1.231333,0.508594 -0.803043,0 -1.338405,-0.455057 -0.508593,-0.481826 -0.508593,-1.311637 0,-0.642435 0.347985,-1.097492 0.374753,-0.481826 1.043956,-0.669203 -0.08031,-0.187377 -0.347986,-0.321217 -0.267681,-0.133841 -0.722738,-0.133841 -0.535362,0 -0.936884,0.214145 -0.374753,0.214145 -0.615666,0.588898 -0.267681,0.455058 -0.374754,1.338405 -0.107072,0.883348 -0.107072,2.676811 v 1.846998 h 2.864187 v 0.535362 h -2.864187 v 10.51986 q 0,1.31164 0.695971,1.7667 0.722738,0.42829 1.927303,0.42829 v 0.56213 q -0.669203,-0.0268 -1.873767,-0.0535 -1.204565,-0.0535 -2.569738,-0.0535 -0.963651,0 -1.927303,0.0535 -0.963652,0.0268 -1.445477,0.0535 v -0.56213 q 0.990419,0 1.391941,-0.40152 0.428289,-0.40152 0.428289,-1.52578 V 95.95642 h -1.927303 v -0.535362 h 1.927303 q 0,-1.579317 0.160609,-2.623273 0.160609,-1.070724 0.481826,-1.820231 0.347985,-0.749507 0.936883,-1.338405 0.56213,-0.588899 1.472246,-0.963652 0.936883,-0.374753 2.034376,-0.374753 z m 8.646086,6.718793 q 1.846999,0 3.265706,0.749507 1.44548,0.722738 2.27529,2.328825 0.85657,1.606086 0.85657,4.229361 0,2.62327 -0.85657,4.22936 -0.82981,1.60608 -2.27529,2.32882 -1.418707,0.72274 -3.265706,0.72274 -1.846999,0 -3.292477,-0.72274 -1.445477,-0.72274 -2.275288,-2.32882 -0.829811,-1.60609 -0.829811,-4.22936 0,-2.623275 0.829811,-4.229361 0.829811,-1.606087 2.275288,-2.328825 1.445478,-0.749507 3.292477,-0.749507 z m 0,0.535362 q -1.258101,0 -2.061144,1.606086 -0.776275,1.579318 -0.776275,5.166245 0,3.58692 0.776275,5.16624 0.803043,1.57932 2.061144,1.57932 1.231332,0 2.034376,-1.57932 0.80304,-1.57932 0.80304,-5.16624 0,-3.586927 -0.80304,-5.166245 -0.803044,-1.606086 -2.034376,-1.606086 z"
       id="text1"
       aria-label="OScofo"
       inkscape:export-filename="oscofo.svg"
       inkscape:export-xdpi="96"
       inkscape:export-ydpi="96" />
    <g
       id="g4"
       transform="matrix(1.0059957,0,0,1.0064635,-0.24065282,-0.31775255)"
       style="stroke-width:0.993809">
      <g
         id="g1"
         transform="matrix(-0.99452097,0,0,0.98116163,118.42543,4.1570616)"
         style="stroke-width:1.00606">
        <path
           id="path1-8"
           style="display:inline;opacity:0.469191;fill:url(#linearGradient2);fill-opacity:1;stroke:url(#linearGradient4);stroke-width:0.29679;stroke-dasharray:none"
           d="m 85.939479,49.1609 c -0.26828,0 -0.45386,0.178103 -0.67881,0.663901 -0.22495,0.485798 -0.45469,1.309341 -0.65144,2.407048 -0.3935,2.195421 -0.65747,5.426599 -0.84953,8.983541 -0.38396,7.110841 -0.48552,15.470861 -1.20626,20.672404 -0.12063,0.890019 -0.5226,1.456001 -0.90188,1.502603 -0.37948,0.04663 -0.80664,-0.410502 -0.98159,-1.25725 l -8e-4,-0.0016 c -0.77926,-3.793433 -1.07494,-9.321098 -1.54205,-13.892252 -0.23355,-2.285575 -0.51044,-4.319237 -0.84631,-5.646383 -0.33587,-1.327151 -0.62154,-1.807295 -1.02668,-1.807295 -0.47994,0 -0.76646,0.432984 -1.08709,1.483361 -0.32062,1.050378 -0.58252,2.688074 -0.78913,4.535066 -0.41298,3.691955 -0.59559,8.104328 -1.22397,11.045809 -0.33935,1.607041 -1.49913,1.656095 -1.8722,0.08339 v -0.0016 C 71.823141,75.992692 71.572405,73.51681 71.087567,71.611806 70.60273,69.706809 70.044122,68.454259 68.75477,68.454259 H 12.40064 c -0.118209,0 -0.189233,0.165988 -0.189233,0.349591 0,0.183608 0.07384,0.356006 0.189233,0.356006 h 56.35413 c 0.839549,0 1.486048,1.082288 1.864149,2.338096 0.378089,1.255805 0.595891,2.724129 0.823757,4.111709 0.227875,1.387577 0.464729,2.686782 0.754513,3.521574 0.28979,0.834789 0.55184,1.231585 1.08466,1.231585 0.4481,0 0.70567,-0.391864 1.00576,-1.396762 0.30009,-1.004894 0.54637,-2.590442 0.74243,-4.393948 0.39193,-3.60517 0.57959,-7.988887 1.22558,-11.044204 0.33727,-1.612996 1.52412,-1.579635 1.84643,0.03848 8.1e-4,0.0037 0.002,0.0075 0.003,0.01122 0.70184,3.618297 0.99129,9.196299 1.50099,13.884236 0.25484,2.343971 0.565,4.44568 0.94051,5.832406 0.37553,1.386726 0.71468,1.943601 1.18855,1.943601 0.22723,0 0.37509,-0.149753 0.58058,-0.657488 0.20551,-0.507738 0.4179,-1.391233 0.59427,-2.552982 0.35273,-2.323493 0.57329,-5.710566 0.74082,-9.395674 0.33496,-7.368013 0.43145,-15.840103 1.40193,-20.76381 0.31916,-1.639282 1.50325,-1.703607 1.86253,-0.09622 0.91848,4.075052 1.06434,10.584339 1.41723,16.143753 0.1765,2.780484 0.39952,5.305808 0.71989,6.987019 0.16018,0.840604 0.34431,1.455336 0.51617,1.804083 0.17185,0.348748 0.3048,0.469865 0.51857,0.469865 0.48876,0 0.79373,-0.34121 1.09755,-1.024719 0.30381,-0.683507 0.56894,-1.75644 0.78511,-3.026052 0.43233,-2.539226 0.65749,-5.745937 1.09192,-8.125598 5.1e-4,-0.0037 8.7e-4,-0.0075 0.002,-0.01123 0.30489,-1.617787 1.46159,-1.75086 1.84643,-0.208471 0.44431,1.749644 0.77426,3.755239 1.24974,5.218216 0.47621,1.465231 0.98776,2.37658 2.02277,2.37658 h 3.544691 c 0.1182,0 0.18923,-0.165991 0.18923,-0.349593 0,-0.189345 -0.0711,-0.352796 -0.18923,-0.352796 h -3.544691 c -0.73992,0 -1.32454,-0.928405 -1.6902,-1.990106 -0.36567,-1.061701 -0.60232,-2.297408 -0.8447,-3.457429 -0.24239,-1.16002 -0.48909,-2.236254 -0.76418,-2.926628 -0.2751,-0.69037 -0.51437,-1.015097 -0.9518,-1.015097 -0.38056,0 -0.58358,0.274402 -0.83101,0.966989 -0.24743,0.692588 -0.46777,1.823856 -0.65145,3.143116 -0.36734,2.638524 -0.57388,5.928625 -1.20787,8.330864 -2.6e-4,0.0016 -5.3e-4,0.0032 -8e-4,0.0048 -0.41708,1.565105 -1.61378,1.352415 -1.88991,-0.349591 v -0.0032 c -0.66691,-4.145713 -0.80954,-10.619376 -1.2296,-16.086021 -0.21004,-2.733323 -0.49048,-5.194626 -0.87289,-6.828262 -0.38241,-1.633635 -0.74668,-2.301209 -1.30771,-2.301209 z"
           sodipodi:nodetypes="sssscsccssssscccsssssssssssscccssssssccsssssscccssssssssssssccccssss"
           inkscape:export-filename="oscofo.png"
           inkscape:export-xdpi="300"
           inkscape:export-ydpi="300" />
        <path
           id="path1-8-2"
           style="display:inline;opacity:1;fill:url(#linearGradient2-0);fill-opacity:1;stroke:url(#linearGradient2-0);stroke-width:0.29679;stroke-dasharray:none"
           d="m 86.156049,49.484627 c -0.26708,0 -0.45182,0.177306 -0.67577,0.660924 -0.22395,0.483621 -0.45266,1.303475 -0.64854,2.396261 -0.39175,2.185581 -0.65453,5.402275 -0.84574,8.943275 -0.38225,7.078967 -0.48336,15.401518 -1.20087,20.579746 -0.1201,0.88603 -0.52027,1.449475 -0.89787,1.495868 -0.37779,0.04643 -0.80304,-0.408661 -0.9772,-1.251614 l -8e-4,-0.0016 c -0.77578,-3.77643 -1.07015,-9.279319 -1.53516,-13.829983 -0.23251,-2.275332 -0.50817,-4.299878 -0.84255,-5.621075 -0.33437,-1.321204 -0.61878,-1.799196 -1.0221,-1.799196 -0.4778,0 -0.76304,0.431044 -1.08223,1.476714 -0.3192,1.04567 -0.57993,2.676026 -0.78562,4.51474 -0.41113,3.675406 -0.59293,8.068 -1.21851,10.996297 -0.33783,1.599839 -1.49245,1.648673 -1.86384,0.08303 v -0.0016 C 72.102689,76.196153 71.853072,73.731367 71.370397,71.834903 70.88772,69.938444 70.331601,68.691508 69.048004,68.691508 H 12.945239 c -0.117681,0 -0.188389,0.165244 -0.188389,0.348023 0,0.182787 0.07352,0.354411 0.188389,0.354411 h 56.102765 c 0.835805,0 1.47942,1.077437 1.855834,2.327617 0.376403,1.250176 0.593232,2.711918 0.820086,4.09328 0.226854,1.381356 0.462645,2.674739 0.751135,3.505789 0.28851,0.831047 0.54939,1.226064 1.07982,1.226064 0.4461,0 0.70253,-0.390107 1.00128,-1.3905 0.29876,-1.00039 0.54393,-2.578831 0.73912,-4.374255 0.39019,-3.589011 0.57701,-7.953079 1.22012,-10.994702 0.33575,-1.605766 1.51732,-1.572554 1.83819,0.03832 8.1e-4,0.0037 0.002,0.0075 0.003,0.01118 0.69869,3.60208 0.98686,9.155079 1.49428,13.822005 0.25372,2.333464 0.56248,4.425753 0.93632,5.806264 0.37386,1.380509 0.7115,1.934888 1.18326,1.934888 0.22621,0 0.37341,-0.149082 0.57798,-0.65454 0.20459,-0.505462 0.41605,-1.384998 0.59162,-2.541539 0.35117,-2.31308 0.57073,-5.684969 0.73751,-9.353561 0.33347,-7.334989 0.42953,-15.769105 1.39568,-20.670743 0.31774,-1.631935 1.49654,-1.695971 1.85421,-0.09578 0.9144,4.056787 1.05962,10.536897 1.41091,16.071394 0.17574,2.768021 0.39776,5.282025 0.71669,6.955701 0.15946,0.836835 0.34278,1.448814 0.51388,1.795997 0.17107,0.347184 0.30344,0.46776 0.51625,0.46776 0.48657,0 0.79018,-0.339682 1.09265,-1.020127 0.30247,-0.680444 0.5664,-1.748568 0.78161,-3.012489 0.43041,-2.527844 0.65457,-5.720182 1.08704,-8.089178 5.1e-4,-0.0037 8.7e-4,-0.0075 0.002,-0.01119 0.30353,-1.610535 1.45507,-1.743012 1.83819,-0.207536 0.44234,1.741803 0.77082,3.738408 1.24418,5.194827 0.47408,1.458664 0.98335,2.365927 2.01373,2.365927 h 3.528881 c 0.11768,0 0.18839,-0.165246 0.18839,-0.348024 0,-0.188497 -0.0707,-0.351216 -0.18839,-0.351216 h -3.528881 c -0.73661,0 -1.31862,-0.924244 -1.68265,-1.981186 -0.36404,-1.056943 -0.59963,-2.287109 -0.84093,-3.441932 -0.24131,-1.154821 -0.48693,-2.226231 -0.76078,-2.913511 -0.27386,-0.687275 -0.51208,-1.010547 -0.94756,-1.010547 -0.37884,0 -0.58098,0.273173 -0.82729,0.962655 -0.24634,0.689483 -0.46569,1.815681 -0.64854,3.129027 -0.36572,2.6267 -0.57133,5.902053 -1.20249,8.293524 -2.6e-4,0.0016 -5.3e-4,0.0032 -8e-4,0.0048 -0.41521,1.558091 -1.60658,1.346353 -1.88147,-0.348024 v -0.0032 c -0.66395,-4.127131 -0.80594,-10.571777 -1.22412,-16.013921 -0.20912,-2.721072 -0.48828,-5.171342 -0.86901,-6.797656 -0.38069,-1.626313 -0.74333,-2.290894 -1.30187,-2.290894 z"
           sodipodi:nodetypes="sssscsccssssscccsssssssssssscccssssssccsssssscccssssssssssssccccssss"
           inkscape:export-filename="oscofo.png"
           inkscape:export-xdpi="300"
           inkscape:export-ydpi="300" />
      </g>
    </g>
  </g>
</svg>
