<?xml version="1.0" encoding="UTF-8" standalone="no"?>
<svg
   version="1.0"
   width="734.1145pt"
   height="772.33032pt"
   viewBox="0 0 734.1145 772.33032"
   preserveAspectRatio="xMidYMid"
   id="svg10"
   sodipodi:docname="oscofo-light.svg"
   inkscape:version="1.4 (e7c3feb100, 2024-10-09)"
   xmlns:inkscape="http://www.inkscape.org/namespaces/inkscape"
   xmlns:sodipodi="http://sodipodi.sourceforge.net/DTD/sodipodi-0.dtd"
   xmlns="http://www.w3.org/2000/svg"
   xmlns:svg="http://www.w3.org/2000/svg">
  <defs
     id="defs10" />
  <sodipodi:namedview
     id="namedview10"
     pagecolor="#ffffff"
     bordercolor="#000000"
     borderopacity="0.25"
     inkscape:showpageshadow="2"
     inkscape:pageopacity="0.0"
     inkscape:pagecheckerboard="0"
     inkscape:deskcolor="#d1d1d1"
     inkscape:document-units="pt"
     inkscape:zoom="0.58029095"
     inkscape:cx="489.40967"
     inkscape:cy="514.39713"
     inkscape:window-width="1912"
     inkscape:window-height="1052"
     inkscape:window-x="0"
     inkscape:window-y="0"
     inkscape:window-maximized="0"
     inkscape:current-layer="svg10" />
  <g
     transform="matrix(0.1,0,0,-0.1,-129,884)"
     fill="#000000"
     stroke="none"
     id="g10"
     style="fill:#ffffff;fill-opacity:1">
    <path
       d="m 4773,8830 c -49,-11 -83,-38 -99,-75 -32,-77 -5,-172 59,-211 30,-18 60,-19 572,-18 514,0 542,1 580,20 113,55 115,215 5,272 l -44,22 -521,-1 c -286,-1 -535,-4 -552,-9 z"
       id="path1"
       style="fill:#ffffff;fill-opacity:1" />
    <path
       d="m 4265,8783 c -103,-10 -354,-56 -480,-88 -646,-166 -1190,-467 -1615,-894 -117,-118 -310,-350 -356,-428 l -26,-44 42,-54 c 57,-73 193,-202 263,-248 81,-54 212,-114 304,-139 68,-19 103,-22 268,-22 203,0 260,10 401,66 l 59,23 7,72 c 18,176 111,337 255,440 35,25 66,43 69,40 3,-3 -1,-18 -9,-34 -69,-134 -88,-447 -37,-608 32,-101 101,-230 165,-307 30,-36 98,-103 150,-147 147,-126 203,-216 225,-357 6,-43 9,-258 7,-579 l -3,-510 -41,-85 c -63,-129 -77,-192 -77,-355 -1,-158 12,-223 68,-340 45,-96 146,-226 225,-291 85,-70 223,-138 336,-165 129,-31 324,-24 440,15 118,41 203,89 283,162 175,159 262,355 262,583 0,203 -54,335 -195,477 -80,81 -103,97 -195,142 -114,55 -210,80 -337,89 l -83,6 v -146 -146 l -42,-12 c -189,-50 -309,-208 -296,-389 9,-123 93,-242 208,-293 62,-28 172,-34 241,-14 208,61 308,286 213,480 l -28,57 21,27 c 30,41 78,66 110,58 37,-9 78,-56 115,-134 32,-64 33,-70 33,-191 0,-144 -15,-198 -86,-307 -104,-159 -271,-246 -470,-245 -228,2 -411,105 -522,294 -75,128 -94,312 -47,458 31,97 108,209 187,274 l 61,51 1,1883 c 1,1787 0,1882 -16,1880 -10,-1 -36,-3 -58,-5 z"
       id="path2"
       style="fill:#ffffff;fill-opacity:1" />
    <path
       d="m 4763,8271 c -93,-16 -103,-43 -103,-291 0,-216 7,-253 51,-284 21,-15 184,-16 1934,-16 1715,0 1913,2 1933,16 47,33 52,59 52,274 0,221 -6,252 -56,285 -29,20 -61,20 -1899,21 -1028,1 -1889,-2 -1912,-5 z"
       id="path3"
       style="fill:#ffffff;fill-opacity:1" />
    <path
       d="m 4725,7371 c -11,-5 -29,-19 -40,-31 -19,-21 -20,-36 -20,-240 0,-171 3,-223 15,-244 30,-57 20,-56 637,-56 545,0 569,1 600,20 34,20 53,66 53,128 v 32 h 710 710 v -330 -330 h -580 -580 v -195 -195 h 580 580 v -535 -535 h -98 -99 l 2,-232 c 1,-294 3,-298 129,-298 h 66 V 3284 c 0,-992 -1,-1046 -17,-1039 -97,40 -142,49 -273,49 -115,1 -146,-2 -210,-22 -113,-36 -183,-76 -260,-149 -115,-108 -170,-227 -170,-369 0,-94 21,-160 74,-232 77,-104 180,-156 330,-168 282,-22 591,195 692,485 35,102 44,217 44,609 v 352 h 474 c 470,0 473,0 501,22 47,37 55,72 55,240 0,175 -10,211 -70,240 -32,16 -77,18 -497,18 h -463 v 135 135 h 470 c 523,0 518,-1 546,65 21,51 20,305 -2,350 -31,65 -30,65 -548,65 h -466 v 130 130 h 473 c 450,0 473,1 504,20 48,29 55,68 51,273 l -3,179 -33,29 -32,29 h -480 -480 v 130 130 h 453 c 268,0 467,4 488,10 19,6 46,22 60,36 23,25 24,31 27,207 4,210 -3,248 -51,277 -31,19 -54,20 -504,20 h -473 v 130 c 0,128 0,130 23,130 12,-1 225,1 472,2 501,4 486,2 520,74 14,29 16,66 13,245 l -3,211 -33,29 -32,29 h -480 -480 v 140 140 h 475 475 l 38,34 37,34 3,199 c 4,227 -3,264 -51,293 -31,20 -66,20 -1932,19 -1045,0 -1909,-4 -1920,-8 z"
       id="path4"
       style="fill:#ffffff;fill-opacity:1" />
    <path
       d="m 3150,6680 c -8,-6 -64,-26 -125,-46 -199,-65 -463,-73 -667,-20 -51,14 -94,24 -95,23 -1,-1 -11,-67 -23,-147 -12,-80 -34,-227 -51,-327 -34,-215 -35,-250 -9,-385 11,-57 20,-113 20,-126 0,-13 -40,-96 -89,-185 -48,-89 -143,-263 -211,-387 -68,-124 -169,-308 -225,-410 -56,-102 -123,-225 -150,-275 -27,-49 -73,-135 -102,-189 -30,-55 -72,-135 -94,-178 l -39,-78 h 440 440 v -305 -305 h 203 c 176,0 207,-3 243,-19 81,-37 122,-125 100,-212 -16,-59 -46,-95 -101,-120 -33,-15 -66,-19 -187,-19 h -148 v -291 c 0,-323 6,-365 63,-474 46,-87 143,-185 225,-228 138,-72 118,-70 796,-74 468,-3 612,-6 626,-16 10,-7 155,-145 322,-307 166,-162 344,-334 394,-382 50,-49 94,-85 97,-81 4,3 7,429 7,945 v 938 h 28 c 26,0 246,51 285,65 16,7 17,-32 17,-724 0,-712 -1,-733 -20,-771 -27,-52 -27,-134 0,-178 38,-62 119,-94 185,-72 74,24 125,90 125,162 0,40 -36,115 -61,129 -18,9 -19,23 -19,199 v 190 h 424 424 l 17,55 c 51,162 239,377 390,446 39,18 29,19 -607,19 h -648 v 140 140 h 258 c 276,0 288,2 326,53 19,26 21,44 24,190 2,140 0,167 -15,196 -34,65 -60,76 -199,79 l -124,4 56,61 c 31,34 83,100 117,147 33,47 62,87 63,89 2,2 27,-10 56,-27 290,-165 716,-21 887,298 104,195 82,403 -57,545 -61,62 -129,100 -224,124 l -73,19 v 272 272 l 203,-2 c 163,-1 209,2 235,15 60,28 62,36 65,298 l 3,237 h -360 -361 v -544 -544 l -52,-12 c -93,-22 -208,-82 -275,-144 -81,-75 -127,-146 -168,-259 -64,-176 -97,-239 -201,-373 -133,-172 -317,-298 -539,-367 -184,-57 -439,-63 -628,-13 -312,81 -590,307 -739,599 -53,105 -104,263 -119,366 -33,230 23,503 146,712 l 36,61 -3,457 -3,458 -29,41 c -15,23 -54,62 -85,88 -160,130 -276,269 -346,412 -40,83 -48,90 -75,72 z m -45,-842 c 53,-28 124,-109 146,-168 59,-155 -28,-343 -182,-396 -76,-25 -181,-24 -241,3 -60,27 -127,94 -158,158 -35,73 -34,180 1,256 46,98 130,162 231,177 60,9 156,-5 203,-30 z"
       id="path5"
       style="fill:#ffffff;fill-opacity:1" />
    <path
       d="m 4712,6504 c -47,-32 -52,-60 -52,-269 0,-208 6,-241 50,-280 21,-19 39,-20 534,-23 581,-4 644,-1 684,33 l 27,23 5,214 c 3,117 1,227 -3,245 -4,18 -21,41 -36,53 -28,20 -41,20 -608,20 -508,0 -581,-2 -601,-16 z"
       id="path6"
       style="fill:#ffffff;fill-opacity:1" />
    <path
       d="m 4708,5654 c -36,-19 -48,-43 -48,-98 v -46 h 74 c 261,0 549,-126 752,-327 l 63,-63 h 148 c 166,0 213,9 243,47 19,24 20,39 20,230 v 205 l -34,34 -34,34 h -579 c -491,-1 -582,-3 -605,-16 z"
       id="path7"
       style="fill:#ffffff;fill-opacity:1" />
    <path
       d="m 6460,3295 c -76,-22 -156,-72 -195,-123 -141,-183 34,-402 320,-402 243,1 418,165 360,339 -21,65 -102,140 -183,172 -74,29 -223,36 -302,14 z"
       id="path8"
       style="fill:#ffffff;fill-opacity:1" />
    <path
       d="m 7978,2504 c -15,-8 -32,-23 -38,-34 -6,-11 -10,-99 -10,-210 v -192 l 34,-34 34,-34 h 264 c 230,0 267,2 298,18 60,30 70,64 70,245 0,178 -9,216 -59,241 -43,23 -552,23 -593,0 z"
       id="path9"
       style="fill:#ffffff;fill-opacity:1" />
    <path
       d="m 5846,1617 c -68,-39 -96,-131 -62,-211 28,-66 113,-106 186,-86 111,30 163,147 107,244 -43,75 -150,100 -231,53 z"
       id="path10"
       style="fill:#ffffff;fill-opacity:1" />
  </g>
</svg>
